Verenigde Staten
Mystery / Thriller
114 minuten

geregisseerd door George Cukor
met Charles Boyer, Ingrid Bergman en Joseph Cotten

Wanneer Paula het levenloze lichaam van haar beroemde tante Alice vindt, verlaat ze Londen. Enkele jaren nadien ontmoet ze een zekere Gregory Anton. Ze worden verliefd en stappen in het huwelijksbootje. Het koppel keert terug naar Engeland om hun intrek te nemen in de woning van Alice. Daar gebeuren mysterieuze voorvallen die enkel Paula ziet en hoort. Op den duur begint ze te geloven dat ze gek wordt.

Info:

Format                           : AVI
Format/Info                      : Audio Video Interleave
File size                        : 1 021 MiB
Duration                         : 1h 49mn
Overall bit rate                 : 1 309 Kbps
Writing application              : Lavf50.6.0

Video
ID                               : 0
Format                           : MPEG-4 Visual
Codec ID                         : DIV3
Codec ID/Hint                    : DivX 3 Low
Duration                         : 1h 49mn
Bit rate                         : 1 200 Kbps
Width                            : 720 pixels
Height                           : 576 pixels
Display aspect ratio             : 5:4
Frame rate                       : 25.000 fps
Standard                         : PAL
Color space                      : YUV
Chroma subsampling               : 4:2:0
Bit depth                        : 8 bits
Compression mode                 : Lossy
Bits/(Pixel*Frame)               : 0.116
Stream size                      : 936 MiB (92%)

Audio
ID                               : 1
Format                           : MPEG Audio
Format version                   : Version 1
Format profile                   : Layer 3
Mode                             : Joint stereo
Mode extension                   : MS Stereo
Codec ID                         : 55
Codec ID/Hint                    : MP3
Duration                         : 1h 49mn
Bit rate mode                    : Constant
Bit rate                         : 96.0 Kbps
Channel(s)                       : 2 channels
Sampling rate                    : 44.1 KHz
Compression mode                 : Lossy
Stream size                      : 74.9 MiB (7%)
Alignment                        : Aligned on interleaves
Interleave, duration             : 26 ms (0.65 video frame)

Engels gesproken, nederlands ondertiteld (.srt, gedownload v. ondertitel.com , radicaal verbeterd (was nodig ook!)).

Moviemeter: http://www.moviemeter.nl/film/2665
ImdB: http://www.imdb.com/title/tt0036855/